PathFileType	4	(X/Y/Z)	/Users/itak/Documents/Research/Walk-IL/dataset/trc/00066_00006.trc
DataRate	CameraRate	NumFrames	NumMarkers	Units	OrigDataRate	OrigDataStartFrame	OrigNumFrames
100.000000	100.000000	4	53	mm	100.000000	554	739
Frame#	Time	RPSI			LPSI			L3			STRN			T10			C7			CLAV			RBAK			LBAK			LSHO			LUPA			LAEL			LAOL			LWTS			LWPS			LFRA			LIFD			LHPS			LHTS			RSHO			RUPA			RAEL			RAOL			RWTS			RWPS			RFRA			RIFD			RHTS			RHPS			RBHD			LFHD			RFHD			LBHD			LHIP			RHIP			RASI			LASI			LKNE			LTHI			LANK			LTIP			LTOE			LMT1			LMT5			LHEE			RKNE			RTHI			RANK			RTIP			RTOE			RMT1			RMT5			RHEE			
		X1	Y1	Z1	X2	Y2	Z2	X3	Y3	Z3	X4	Y4	Z4	X5	Y5	Z5	X6	Y6	Z6	X7	Y7	Z7	X8	Y8	Z8	X9	Y9	Z9	X10	Y10	Z10	X11	Y11	Z11	X12	Y12	Z12	X13	Y13	Z13	X14	Y14	Z14	X15	Y15	Z15	X16	Y16	Z16	X17	Y17	Z17	X18	Y18	Z18	X19	Y19	Z19	X20	Y20	Z20	X21	Y21	Z21	X22	Y22	Z22	X23	Y23	Z23	X24	Y24	Z24	X25	Y25	Z25	X26	Y26	Z26	X27	Y27	Z27	X28	Y28	Z28	X29	Y29	Z29	X30	Y30	Z30	X31	Y31	Z31	X32	Y32	Z32	X33	Y33	Z33	X34	Y34	Z34	X35	Y35	Z35	X36	Y36	Z36	X37	Y37	Z37	X38	Y38	Z38	X39	Y39	Z39	X40	Y40	Z40	X41	Y41	Z41	X42	Y42	Z42	X43	Y43	Z43	X44	Y44	Z44	X45	Y45	Z45	X46	Y46	Z46	X47	Y47	Z47	X48	Y48	Z48	X49	Y49	Z49	X50	Y50	Z50	X51	Y51	Z51	X52	Y52	Z52	X53	Y53	Z53	

555	5.54	-781.8406982421875	1014.813049316406	355.7243347167969	-625.5458374023438	1002.963684082031	283.2566833496094	-694.070556640625	1075.616455078125	313.9337463378906	-619.9192504882812	1265.63330078125	559.7266845703125	-683.9957885742188	1205.853515625	296.625	-664.1671142578125	1471.534912109375	360.4952697753906	-624.9199829101562	1380.67578125	531.8490600585938	-751.2116088867188	1334.909912109375	313.2760009765625	-572.3795166015625	1434.9990234375	313.0905151367188	-478.27685546875	1436.142211914062	395.5464172363281	-407.1885375976562	1311.310424804688	356.58251953125	-379.1561279296875	1095.7705078125	372.1978759765625	-475.9165954589844	1078.671508789062	331.7607421875	-449.1662292480469	907.8828735351562	541.62109375	-405.3778076171875	868.6812133789062	481.2189636230469	-378.3990173339844	994.8257446289062	420.9158630371094	-493.7759399414062	741.9444580078125	614.07861328125	-416.174560546875	802.4215698242188	538.0965576171875	-454.5963439941406	835.75341796875	587.7727661132812	-819.5628051757812	1435.733642578125	459.8876342773438	-885.5397338867188	1373.202026367188	456.4436645507812	-958.7296142578125	1129.791137695312	401.0147399902344	-864.7703857421875	1092.843139648438	397.2236328125	-926.2136840820312	856.519287109375	501.7647705078125	-988.1585083007812	858.6181640625	439.7450256347656	-975.9496459960938	1048.46923828125	405.1577758789062	-923.3408203125	669.9166870117188	452.7605590820312	-933.0064697265625	747.9547119140625	498.4907836914062	-992.4559326171875	763.75048828125	452.0507507324219	-643.4093017578125	1644.288330078125	375.7127990722656	-631.3179321289062	1683.022338867188	587.9014892578125	-531.5383911132812	1682.510620117188	509.9188537597656	-744.9249267578125	1637.546630859375	468.2416076660156	-502.8433837890625	936.62451171875	345.4456176757812	-831.8060302734375	951.1522216796875	450.7077941894531	-767.361572265625	975.9307861328125	557.7330932617188	-513.844482421875	951.2721557617188	470.4284973144531	-633.9285888671875	483.6429138183594	460.2432250976562	-569.7787475585938	614.4212036132812	413.8675842285156	-711.5164794921875	50.06695938110352	311.94970703125	-669.167724609375	246.1116180419922	383.1882629394531	-751.294677734375	43.25498962402344	514.6500854492188	-794.6517944335938	38.65286254882812	457.2236022949219	-688.6854248046875	45.09120559692383	419.9331359863281	-780.9046630859375	52.91274642944336	250.0394897460938	-732.45263671875	554.786376953125	686.12109375	-791.3796997070312	807.6195678710938	594.0006103515625	-842.1155395507812	70.52830505371094	640.6359252929688	-758.7962646484375	429.8779602050781	690.323974609375	-697.3944091796875	87.52953338623047	793.8980712890625	-694.8107299804688	79.74930572509766	724.9177856445312	-790.78515625	79.92803955078125	750.4966430664062	-818.3994140625	68.80918121337891	572.6236572265625	
556	5.55	-781.9669799804688	1013.710571289062	365.319580078125	-626.602294921875	1002.204345703125	290.6361389160156	-694.75390625	1074.721313476562	322.0916748046875	-617.2534790039062	1264.5947265625	567.1349487304688	-684.91259765625	1205.04736328125	304.6893310546875	-664.0286254882812	1470.637084960938	368.620849609375	-622.6328735351562	1379.656616210938	539.3876342773438	-751.7725219726562	1334.074584960938	322.3927307128906	-572.936279296875	1434.066040039062	320.0158081054688	-477.7712707519531	1435.157836914062	401.2216796875	-407.1259460449219	1310.336181640625	361.3514099121094	-378.7340087890625	1094.794921875	376.8880310058594	-476.0390625	1077.619873046875	337.5498962402344	-447.3974304199219	907.7890625	547.9535522460938	-404.0099182128906	868.3295288085938	487.3122253417969	-377.6774597167969	994.069091796875	426.0886840820312	-491.3088684082031	742.1708984375	621.4834594726562	-414.5283813476562	802.2435913085938	544.4876098632812	-452.4712219238281	835.8241577148438	594.4305419921875	-818.1709594726562	1434.815551757812	469.9442749023438	-884.2398071289062	1372.383178710938	467.2408752441406	-958.44140625	1129.288696289062	412.1358947753906	-864.7421875	1092.182983398438	407.1293029785156	-924.9365234375	855.5474243164062	511.402099609375	-987.7333984375	858.01806640625	450.3167114257812	-975.698486328125	1047.9814453125	416.2365112304688	-923.0086059570312	669.1693725585938	461.6017456054688	-931.7606201171875	747.1051635742188	507.4930725097656	-992.0330200195312	763.1292114257812	462.2309265136719	-642.7694091796875	1643.2744140625	383.7681579589844	-628.806640625	1681.973754882812	595.8275146484375	-529.7279663085938	1681.534301757812	516.9534912109375	-743.2747192382812	1636.482788085938	477.013671875	-502.7760925292969	936.13720703125	350.896484375	-830.3690795898438	949.9561157226562	461.0518188476562	-764.4298706054688	974.6552734375	567.123291015625	-512.3677978515625	950.328125	475.9873962402344	-632.8963012695312	482.4832458496094	463.5590515136719	-569.1346435546875	613.7089233398438	417.6818542480469	-712.5948486328125	50.32144165039062	311.969482421875	-669.3997802734375	245.6685485839844	384.5866088867188	-751.1920166015625	43.19825744628906	514.7808837890625	-794.7866821289062	38.41413116455078	457.5599365234375	-688.9964599609375	45.2050666809082	419.7692565917969	-782.4365234375	53.62062072753906	250.3815460205078	-727.2251586914062	553.9489135742188	694.535400390625	-787.8447265625	806.4404296875	603.8097534179688	-827.835693359375	66.27470397949219	671.966796875	-751.510498046875	429.0885314941406	703.7070922851562	-678.6739501953125	92.6492919921875	819.5859375	-678.1275634765625	82.21479797363281	750.8974609375	-773.2161254882812	81.22445678710938	779.593505859375	-806.2265014648438	62.38291931152344	603.2921752929688	
557	5.56	-781.9060668945312	1012.5439453125	374.9700622558594	-627.500732421875	1001.417175292969	298.0951232910156	-695.2523193359375	1073.705444335938	330.4121398925781	-614.5689086914062	1263.481079101562	574.5671997070312	-685.7028198242188	1204.122192382812	312.8131713867188	-663.7976684570312	1469.639282226562	376.7701110839844	-620.3319091796875	1378.551391601562	546.9454345703125	-752.2074584960938	1333.114501953125	331.5284729003906	-573.4070434570312	1433.030151367188	327.0092163085938	-477.2189025878906	1434.097045898438	406.98046875	-406.9899597167969	1309.304443359375	366.2535705566406	-378.2018127441406	1093.766845703125	381.6936645507812	-476.0029907226562	1076.48974609375	343.4156188964844	-445.4335021972656	907.5835571289062	554.316650390625	-402.4556274414062	867.8843994140625	493.4243469238281	-376.8114318847656	993.2328491210938	431.3305969238281	-488.5567321777344	742.23046875	628.857666015625	-412.6432189941406	801.9735107421875	550.8909912109375	-450.1613464355469	835.75048828125	601.0829467773438	-816.70556640625	1433.797729492188	479.9447631835938	-882.85791015625	1371.468017578125	477.9646911621094	-958.0654907226562	1128.68896484375	423.21826171875	-864.6703491210938	1091.451538085938	417.0550231933594	-923.6556396484375	854.5127563476562	521.1109008789062	-987.2283325195312	857.325439453125	460.9302978515625	-975.3681640625	1047.394409179688	427.3005676269531	-922.6019897460938	668.3494262695312	470.5728759765625	-930.5838623046875	746.201171875	516.7081909179688	-991.5437622070312	762.4207763671875	472.4696960449219	-642.0729370117188	1642.189819335938	391.8433532714844	-626.2684326171875	1680.838256835938	603.7534790039062	-527.8892822265625	1680.485229492188	524.0244140625	-741.6115112304688	1635.34765625	485.8185729980469	-502.5135192871094	935.6286010742188	356.3682250976562	-828.740234375	948.6500854492188	471.3985900878906	-761.3875732421875	973.1943359375	576.51708984375	-510.7615356445312	949.2630615234375	481.4846496582031	-631.812744140625	481.2832336425781	466.84033203125	-568.4276733398438	612.9423217773438	421.4699096679688	-713.8406982421875	50.59993743896484	311.9615478515625	-669.674072265625	245.2317352294922	385.9322509765625	-751.037841796875	43.15156555175781	514.8811645507812	-794.9143676757812	38.21622848510742	457.89990234375	-689.3685913085938	45.3216552734375	419.5098876953125	-784.1513671875	54.38519287109375	250.7794952392578	-722.5595092773438	552.8172607421875	702.67041015625	-784.3483276367188	805.098388671875	613.4226684570312	-812.5465698242188	62.80132293701172	702.1751098632812	-744.5538940429688	428.2244262695312	716.5148315429688	-659.8246459960938	98.50790405273438	844.0792236328125	-661.0101318359375	85.43214416503906	775.8433227539062	-755.1529541015625	83.26567840576172	807.4148559570312	-792.8356323242188	56.73318862915039	633.0384521484375	
558	5.57	-781.6551513671875	1011.321899414062	384.69970703125	-628.2554931640625	1000.605651855469	305.6386108398438	-695.574462890625	1072.57470703125	338.8905029296875	-611.8665161132812	1262.28759765625	582.0144653320312	-686.3524169921875	1203.071655273438	321.0214538574219	-663.4765014648438	1468.54150390625	384.9458923339844	-618.020751953125	1377.360107421875	554.5233154296875	-752.5208129882812	1332.0244140625	340.6860046386719	-573.7883911132812	1431.894653320312	334.0711059570312	-476.61669921875	1432.963989257812	412.8222351074219	-406.775390625	1308.216674804688	371.2897644042969	-377.5545349121094	1092.693115234375	386.6241760253906	-475.7919616699219	1075.283081054688	349.3666687011719	-443.276611328125	907.2741088867188	560.7123413085938	-400.7146911621094	867.3529052734375	499.5768127441406	-375.7868041992188	992.3218383789062	436.6513977050781	-485.5699462890625	742.1221923828125	636.1903686523438	-410.5263977050781	801.6173706054688	557.3230590820312	-447.6762390136719	835.5413208007812	607.7398071289062	-815.1707763671875	1432.6787109375	489.8931274414062	-881.3952026367188	1370.453002929688	488.6178588867188	-957.596923828125	1127.988403320312	434.260498046875	-864.5313110351562	1090.635986328125	426.9936828613281	-922.3679809570312	853.41259765625	530.8999633789062	-986.6505126953125	856.5423583984375	471.5852661132812	-974.9561157226562	1046.703979492188	438.3483581542969	-922.140380859375	667.4527587890625	479.67138671875	-929.4723510742188	745.2489013671875	526.1395263671875	-990.9861450195312	761.6248779296875	482.7823791503906	-641.3231811523438	1641.046142578125	399.9354248046875	-623.7047729492188	1679.61328125	611.6799926757812	-526.0256958007812	1679.3671875	531.1380615234375	-739.9542846679688	1634.140258789062	494.6616821289062	-502.0751647949219	935.091064453125	361.8380126953125	-826.923095703125	947.2440185546875	481.7687377929688	-758.2046508789062	971.5581665039062	585.9298095703125	-508.9938049316406	948.1234130859375	486.9650268554688	-630.6801147460938	480.0423583984375	470.108642578125	-567.658203125	612.1170654296875	425.2374877929688	-715.2213745117188	50.90120315551758	311.9152221679688	-669.9713134765625	244.802978515625	387.2465515136719	-750.835205078125	43.10790634155273	514.9518432617188	-795.0382690429688	38.05300140380859	458.24169921875	-689.7959594726562	45.42842102050781	419.1663513183594	-785.9971313476562	55.21410751342773	251.2255706787109	-718.4375	551.4150390625	710.6055297851562	-780.892578125	803.608642578125	622.8571166992188	-796.4202270507812	60.10208511352539	731.13818359375	-737.9384765625	427.3070373535156	728.775634765625	-640.937255859375	105.0094528198242	867.2764282226562	-643.5822143554688	89.36798858642578	799.6226806640625	-736.7216796875	85.96005249023438	833.8690795898438	-778.415771484375	51.92725372314453	661.7069702148438	
